<?xml version="1.0" encoding="UTF-8"?>
<svg id="Ebene_1" xmlns="http://www.w3.org/2000/svg" viewBox="0 0 512 512">
  <defs>
    <style>
      .cls-1 {
        fill: #bd8971;
      }
    </style>
  </defs>
  <path class="cls-1" d="M423.31,249.54c4.1-.46,8.92-.71,13.61-1.61,4.73-.91,6.77-4.72,8.28-8.96,5.5-15.42,8.23-31.28,7.51-47.7.5-.1,1-.2,1.49-.3,1.02,4.31,2.58,8.58,2.97,12.94,1.29,14.22-2.84,27.64-6.67,41.09-.5,1.75-.14,3.74-.18,5.62,1.95-.25,4.05-.11,5.82-.81,7.46-2.96,11.79-8.71,14.02-16.31,6.84-23.26,2.35-44.52-11.15-64.24-14.87-21.73-34.89-36.88-59.19-46.72-4.02-1.63-7.58-4.37-11.36-6.59.21-.74.42-1.47.63-2.21,5.23.99,10.9.99,15.61,3.12,34.53,15.57,62.67,37.75,73.2,76.2,4.79,17.47,4.53,35.19-4.72,51.51-5.07,8.94-11.93,14.48-23.87,13.89-11.54-.57-23.27,2.09-34.87,3.71-1.9.26-3.73,2.26-5.24,3.81-5.26,5.36-10.44,10.53-18.56,11.55-1.87.24-3.95,2.71-5.05,4.66-8.08,14.32-18.81,26.49-31.47,36.7-5.13,4.14-11.99,6.62-18.46,8.47-7.13,2.05-13.19,4.6-16.92,11.49-1.26,2.32-3.51,4.33-5.73,5.88-7.61,5.28-15.76,9.83-23.05,15.51-10.76,8.38-21.94,15.31-35.89,16.78-1.62.17-3.63,1.91-4.46,3.46-3.22,5.98-8.5,8.54-14.73,8.43-9.31-.16-17.33,2.51-25.24,7.41-4.15,2.57-9.77,3.51-14.79,3.73-5.3.23-9.35,1.88-12.8,5.62-7.45,8.08-15,16.07-22.3,24.28-7.41,8.33-17.36,11.29-27.64,13.35-27.94,5.6-62.72-11.87-74.69-37.82-1.58-3.44-1.17-8.27-.35-12.18.59-2.82.15-4-1.98-5.41-14.66-9.65-19.12-23.27-16.32-40.21.67-4.05.16-9.28-1.95-12.64-7.91-12.6-7.41-25.02-.94-37.67,2.76-5.4,4.46-10.7,4.54-16.97.05-3.52,2.79-7.55,5.4-10.35,3.18-3.42,5.07-6.7,4.3-11.4-1.61-9.87,1.82-17.54,10.27-22.93.16-.1.39-.17.45-.32,3.5-7.71,9.59-15.32,9.93-23.17.75-17.27,7.57-30.2,20.71-40.51,1.75-1.38,3.73-2.47,5.51-3.81,3.97-2.97,6.57-6.51,7.66-11.74,3.28-15.76,11.09-28.68,25.86-36.39,3.29-1.71,4.93-3.92,5.35-7.73,1.11-10,8.59-15.82,15.64-21.46,10.08-8.07,22.37-11.55,34.57-15.05,33.25-9.55,66.94-9.63,100.76-4.15,18.28,2.97,34.17,12.33,50.59,20.27,7.12,3.44,14.77,5.79,22.18,8.62,1.56.59,3.32.83,4.72,1.68,16.39,9.89,29.83,22.17,33.92,42.03,6.25,30.37,5.01,60.74.27,91.13-1.46,9.38-3.04,18.74-4.44,28.13-.19,1.24.33,2.59.53,3.89,1.38-.29,3.31-.09,4.06-.94,6.01-6.77,13.46-12.92,17.31-20.8,8.82-18.05,15.68-37.01,18.27-57.2,1.15-8.96,1.22-17.79-1.95-26.47-.59-1.6.27-3.73.46-5.62,1.39,1.42,3.41,2.59,4.09,4.29,5.69,14.34,4.43,28.99.51,43.36-4.13,15.16-9.2,30.06-14.07,45.78ZM117.65,168.71c-.28.49-.56.99-.84,1.48-13.01,1.91-23.83,7.94-31.31,18.55-3.4,4.83-5.1,11.04-6.76,16.86-.84,2.96.25,5.8,4.94,4.96,9.62-1.73,19.32-4.1,29-4.17,42.43-.31,77.15,16.28,102.62,50.36,23.69,31.69,39.12,66.7,38.98,107.21,0,1.21.51,2.43.91,4.22,3.02-.69,5.75-1.12,8.36-1.93,12.05-3.75,21.56-11.58,30.86-19.65,2.14-1.85,4.14-4.36,5.11-6.98,4.71-12.71,6.47-25.93,5.94-39.48-1.15-29.55-14.09-55.29-28.91-79.42-12.78-20.8-29.2-39.48-44.94-58.31-14.2-16.99-30.95-31.24-52.15-39.16-10.95-4.09-22-6.68-33.74-2.51-18.81,6.68-30.22,19.73-34.4,39.09-.32,1.49,1.39,3.59,2.51,5.15,1.02,1.42,2.52,2.5,3.81,3.73ZM174.36,402.87c3.66-2.48,6.87-4.68,10.11-6.83,3.31-2.2,3.69-4.9,1.47-8.06-3.32-4.72-6.89-9.28-9.98-14.14-20.14-31.62-50.02-43.68-86.18-42.77-12.82.32-23.61,5.02-29.92,17.16-.41.78-1.55,1.18-2.57,1.92-.48-7.88,3.5-14.37,11.45-19.41,10.84-6.88,22.79-8.11,34.99-5.97,11.09,1.94,21.98,4.99,33.79,7.75-5.35-5.42-9.96-11.03-15.49-15.49-15.61-12.61-32.84-22.46-52.06-28.65-1.52-.49-2.54-2.5-3.79-3.8,1.62-.29,3.44-1.22,4.82-.77,16.89,5.51,33.56,11.93,47.14,23.63,27.69,23.85,53.83,49.28,73.83,80.26,3.45,5.34,7.28,6.46,12.78,3.32,3.7-2.12,6.96-5,10.64-7.16,2.47-1.46,5.27-2.95,8.03-3.21,6.86-.64,8.16-1.56,8.02-8.42-.32-15.46-3.69-30.27-10.18-44.31-13.29-28.74-33.98-51.34-58.71-70.61-23.24-18.11-49.71-25.82-78.85-23.9-17.73,1.17-27.5,13.38-26.73,31.15.11,2.46-.89,5.71-2.58,7.36-7.47,7.29-8.24,10.2-3.33,19.78-8.26,2.91-9.26,10.55-11.34,17.64-1.9,6.47-1.48,12.5,2.43,18.12,5.19,7.45,6.61,15.76,5.17,24.51-1.3,7.89.06,15.13,3.67,22.16,4.75,9.24,9.99,10.74,18.88,5.1,8.43-5.35,17.39-9.56,27.41-10.42,26.03-2.24,45.1,9.74,59.7,30.19,3.08,4.31,5.57,9.03,8.39,13.64,3.76-2.78,4.01-5.71,2.32-9.5-8.25-18.53-21.88-31.84-39.88-40.57-16.33-7.93-33.38-10.29-50.87-3.72-4.02,1.51-7.78,3.71-12.5,5.99.66-1.73.84-2.43,1.17-3.05,4.59-8.67,13.19-10.83,21.6-11.9,21.49-2.74,40.96,2.94,58.11,16.22,12.62,9.77,21.38,22.66,29.07,36.79ZM331.73,320.17c6.61-.56,12.47-3,17.2-7.14,16.78-14.7,32.44-30.16,30.23-55.33-.19-2.2.27-4.46.4-6.69,1.96-34.67.36-68.88-12.77-101.68-10.61-26.52-26.73-48.56-53.48-60.14-11.73-5.08-24.9-7.55-37.68-9.34-36.34-5.09-72.11-2.61-106.5,11.38-9.5,3.86-18.29,8.84-24.6,19.3,2.81-.79,4.46-.96,5.82-1.68,24.78-13.12,48.43-9.43,70.49,5.94,21.12,14.71,40.49,31.51,57.05,51.49,21.85,26.35,42.39,53.38,53.16,86.51,4.8,14.77,9.41,29.59,6.39,45.37-1.38,7.24-3.68,14.31-5.71,22.03ZM308.18,336.76c1.47-.26,2.07-.24,2.53-.48.64-.34,1.29-.8,1.74-1.36,12.19-15.18,19.52-32.09,17.81-51.97-1.32-15.36-5.82-29.94-12.25-43.87-15.41-33.4-38.23-61.51-63.36-87.93-15.67-16.47-33.62-29.96-54.04-39.91-9.85-4.8-25.38-5.7-35.13.38,25.31,6.05,32.08,9.15,46.4,21.74,29.15,25.63,54.13,54.73,73.67,88.41,9.75,16.79,18.74,33.9,23.79,52.73,5.51,20.55,5.41,41.16-1.17,62.26ZM72.46,227.18c.45.36.89.71,1.34,1.07,19.84-4.68,39.12-1.46,58.2,4.16,15.87,4.68,29.02,14.29,41.56,24.48,23.1,18.77,42.29,40.92,54.33,68.48,7.13,16.33,11.97,33.24,9.11,51.43-.57,3.62,1.9,4.02,4.05,2.8,1.76-1,3.65-3.17,3.95-5.07,1.15-7.26,2.95-14.74,2.21-21.91-2.69-26.09-11.73-50.36-24.72-72.93-26.08-45.34-71.19-74.28-129.27-65.19-6.12.96-11.86,4.81-17.54,7.77-1.51.79-2.16,3.22-3.21,4.9ZM120.23,436.4c13.96-.27,24.89-5.31,35.2-11.86,3.86-2.45,4.79-6.34,3.01-10.81-5.81-14.61-15.59-25.62-29.47-32.99-20.27-10.77-47.12-7.27-61.59,8.03-5.52,5.83-6.42,11.13-2.17,17.03,13.86,19.22,33.1,28.7,55.02,30.6ZM349.01,105.98c36.57,41.36,40.28,90.93,39.37,141.78.78-1.85,1.32-3.63,1.7-5.43,4.71-22.01,4.23-44.34,4.65-66.68.44-23.41-6.89-43.42-22.92-60.17-5.71-5.96-13.06-9.46-22.8-9.5Z"/>
  <path class="cls-1" d="M406.5,234.25c2.56-8.93,5.11-17.85,7.67-26.78,3.91,5.44-.92,21.04-7.67,26.78Z"/>
  <path class="cls-1" d="M420.99,172.72c.57,3.25,1.13,6.51,1.7,9.76-.72.13-1.44.26-2.16.4-3.94-2.62-3.16-6.19-1.45-9.95.64-.07,1.27-.14,1.9-.22Z"/>
  <path class="cls-1" d="M128.7,156.2c3.11.67,6.35.99,9.31,2.06,40.18,14.53,71.16,40.39,93.7,76.53,3.92,6.29,7.55,12.77,11.04,19.31.84,1.57.63,3.71.9,5.59-.5.24-1.01.49-1.51.73-1.12-1.39-2.51-2.64-3.31-4.19-22.9-44.55-56.94-76.7-104.36-94.05-2.36-.86-4.57-2.16-6.84-3.25.35-.91.71-1.82,1.06-2.74Z"/>
  <path class="cls-1" d="M133.47,139.64c3.15-.63,6.3-1.84,9.44-1.78,19.01.34,37.19,4.98,54.95,11.4,3.82,1.38,7.5,3.22,11.08,5.15.69.37.62,2.14.9,3.27-1.11.07-2.48.6-3.3.14-14.42-8.06-30.49-10.58-46.33-13.64-8.66-1.67-17.54-2.22-26.32-3.27-.14-.43-.28-.85-.42-1.28Z"/>
  <path class="cls-1" d="M278.22,267.76c-.48.53-1.17,1.73-1.56,1.64-1.05-.24-2.51-.82-2.86-1.66-1.05-2.57-1.22-5.55-2.5-7.95-7.24-13.58-14.79-27-22.03-40.59-1.49-2.8-2.12-6.07-3.14-9.12,2.25,2.01,4.86,3.73,6.7,6.06,11.74,14.81,18.53,32.1,24.6,49.74.18.52.43,1.02.8,1.87Z"/>
  <path class="cls-1" d="M268.46,349.21c.63-7.35,1.73-14.69,1.79-22.04.07-9.82-.76-19.64-.99-29.47-.04-1.56,1.03-3.15,1.59-4.73.98,1.48,2.55,2.85,2.84,4.46,2.7,14.82,1.49,29.57-1.38,44.23-.53,2.73-1.88,5.29-2.85,7.94-.33-.13-.66-.26-.99-.38Z"/>
  <path class="cls-1" d="M142.21,188.02c7.78,5.85,14.85,11.16,21.93,16.48-8.1,1.62-22.72-9.98-21.93-16.48Z"/>
  <path class="cls-1" d="M284.65,313.6c-.22-2.99-.44-5.98-.66-8.98,3.91,2.69,5.5,5.57.66,8.98Z"/>
  <path class="cls-1" d="M180.58,323.71c-26.51-36.25-63.39-52.63-106.92-57.71.24-3.87,3.97-4.34,6.72-4.24,5.7.21,11.49.86,17.03,2.18,28.9,6.85,54.36,19.9,74.33,42.43,4.43,5,8.31,10.34,8.84,17.34Z"/>
  <path class="cls-1" d="M83.98,243.34c7.71-2.45,13.95,4.93,22.33,2.8-2.03,5.26-4.08,7.2-8.4,5.21-4.77-2.19-9.65-4.16-14.48-6.22.18-.6.37-1.19.55-1.79Z"/>
  <path class="cls-1" d="M135.45,260.41c1.79.2,3.71.07,5.36.66,3.8,1.37,7.55,2.96,11.16,4.76.86.43,1.15,2.03,1.69,3.09-.88.45-2.03,1.52-2.6,1.27-5.52-2.41-10.95-5.04-16.4-7.61.26-.72.52-1.44.78-2.16Z"/>
  <path class="cls-1" d="M176.15,339.55c-8.21-3.7-13.64-10.17-12.01-14.61,5.49,3.59,10.18,7.43,12.01,14.61Z"/>
  <path class="cls-1" d="M81.49,318.47c-2.69.13-5.41.55-8.03.18-.56-.08-.71-3.02-1.05-4.65,3.06.46,6.13.92,9.19,1.38-.04,1.03-.07,2.06-.11,3.09Z"/>
  <path class="cls-1" d="M315.63,122.66c1.22,1.93,2.73,3.73,3.6,5.81,3.8,9.07,7.47,18.18,11.01,27.35.54,1.39.11,3.16.13,4.75-1.63-.77-4.21-1.13-4.73-2.37-2.95-6.99-5.59-14.12-7.97-21.33-1.44-4.35-2.24-8.92-3.33-13.39.43-.27.86-.55,1.29-.82Z"/>
  <path class="cls-1" d="M360.5,240.41c4.8,8.46,3.61,42.29-1.67,45.4v-45.36c.56-.01,1.11-.02,1.67-.04Z"/>
  <path class="cls-1" d="M287.58,110.99c7.03-.26,20.51,18.31,21.59,27.74-.45.32-.89.64-1.34.95-6.6-9.35-13.2-18.71-20.25-28.7Z"/>
  <path class="cls-1" d="M254.15,96.14c-11.72-1.75-22.36-3.35-32.9-4.93,6.81-6.6,21.9-4.76,32.9,4.93Z"/>
  <path class="cls-1" d="M353.99,220.35c-.88-1.62-2.14-3.15-2.57-4.89-2.08-8.48-4-17-5.8-25.54-.2-.93.82-2.12,1.27-3.19,1.01.54,2.78.93,2.92,1.65,2.08,10.43,3.95,20.91,5.87,31.38-.57.2-1.13.39-1.7.59Z"/>
  <path class="cls-1" d="M345.13,231.47v34.65c-4.35-6.89-4.11-24.97,0-34.65Z"/>
  <path class="cls-1" d="M128.62,427.41c-14.36-1.75-32.31-17.48-32.51-29.49,11.22,10.17,21.61,19.6,32.51,29.49Z"/>
  <path class="cls-1" d="M109.28,387.04c8.18,1.09,23.76,19.88,25.06,30.08-8.02-9.62-16.04-19.24-25.06-30.08Z"/>
  <path class="cls-1" d="M84.61,412.34c-5.15-3.18-8.97-7.19-8.61-13.78.57-.36,1.13-.73,1.7-1.09,2.93,4.52,5.85,9.03,8.78,13.55-.62.44-1.24.88-1.86,1.32Z"/>
</svg>