<?xml version="1.0" encoding="UTF-8"?>
<svg id="Ebene_1" xmlns="http://www.w3.org/2000/svg" viewBox="0 0 512 512">
  <path d="M473.68,354.78c-12.73,0-25.13.09-37.52-.07-2.8-.04-3.93.77-4.53,3.88-1.44,7.42-3.39,14.71-5.09,22.07-.45,1.96-.72,3.97-1.17,6.46h25.11v11.55H51.99v-11.49h25c-2.54-11.1-4.95-21.61-7.43-32.46H28.71v-11.45h54.53c.16-.75.33-1.07.25-1.26-4.51-10.97-2.46-21.11,4.56-29.66,6.24-7.59,13.4-14.32,20.4-21.14,1.93-1.88,2.73-3.28,1.51-5.86-3.03-6.44-1.65-12.22,1.78-18.17,10.96-19.01,26.22-30.58,47.09-32.76,3.15-.33,5.67-1.39,8.2-3.63,10.07-8.91,22-13.14,34.71-15.18,10.05-1.61,20.1-1.86,30.15-.08.99.17,2.01.12,3.46.2v-27.63h208.76c.23.29.54.49.54.7-.07,16.56.6,33.18-.47,49.67-1.19,18.24-14.21,33.14-30.69,37.51-1.23.33-2.45.7-4.02,1.14-.78,27.65-11.92,49.36-33.73,65.8h97.97v11.87ZM398.15,200.01h-151.48c-.1.75-.23,1.28-.23,1.81,0,25.83-.49,51.67.17,77.47.85,33.41,23.93,59.95,54.85,63.17,12.16,1.27,24.5.65,36.76.56,32.64-.22,59.92-30,59.95-65.29.01-17.54,0-35.08-.01-52.62,0-8.27,0-16.53,0-25.11ZM421.19,355.08H80.97c2.12,9.32,4.32,18.24,6.12,27.26.76,3.8,2.26,4.87,5.89,4.86,91.89-.13,183.78-.1,275.67-.1,13.93,0,27.86-.06,41.79.06,2.44.02,3.62-.63,4.2-3.38,2.03-9.52,4.31-18.98,6.55-28.69ZM235.4,227.24c-8.4-.28-16.42-1.07-24.4-.71-13.08.59-25.46,4.09-36.31,12.58-2.06,1.61-2.63,3.09-1.85,5.85,2.59,9.09,4.87,18.28,7.27,27.43,5.9,22.56,11.82,45.11,17.66,67.68.51,1.98,1.09,3.06,3.26,3.04,10.74-.11,21.47.02,32.21-.16,1.08-.02,2.79-1.36,3.1-2.46,2.35-8.3,4.5-16.68,6.52-25.09.35-1.45.16-3.37-.44-4.73-4.95-11.32-7.12-23.22-7.04-35.71.1-15.46.02-30.92.02-47.73ZM187.02,343.05c-8.55-32.81-16.89-64.82-25.23-96.82-1.13,0-1.77-.06-2.39,0-18.19,1.95-30.93,12.5-39.44,29.52-.61,1.22-.4,3.26.04,4.7,6.65,21.98,17.2,41.76,29.54,60.5.64.97,1.95,1.99,2.96,2,11.23.14,22.45.09,34.51.09ZM409.67,199.89v64.88c1.9-.61,3.53-.93,5.01-1.63,12.53-5.9,18.86-16.43,19.22-31.06.24-9.66.06-19.33.03-29,0-1.05-.2-2.09-.31-3.2h-23.95ZM114.6,300.93c-7.19,5.92-14.1,12.25-19.27,20.45-4.33,6.86-4.31,12.53.15,19.12.87,1.29,2.82,2.41,4.29,2.44,9.45.22,18.91.11,28.37.11,2.75,0,5.51,0,8.36,0-7.38-14.2-14.53-27.95-21.9-42.13ZM247.36,342.71h20.38c-5.47-5.28-10.77-10.39-16.33-15.76-1.32,5.13-2.66,10.34-4.05,15.76Z"/>
  <path d="M264.24,82.62c1.98-3.35,3.75-6.35,5.52-9.34,17.47,10.03,21.55,26.61,13.14,43.28-1.94,3.86-4.27,7.52-6.72,11.04-8.47,12.16-7.99,17.43,2.95,27.31-.71,1.62-1.42,3.34-2.22,5.01-.81,1.7-1.7,3.36-2.56,5.02-15.36-8.58-19.3-25.28-9.66-40.38,2.68-4.19,5.67-8.19,8.03-12.58,5.86-10.92,4.34-18.59-4.84-26.32-1.09-.92-2.2-1.83-3.64-3.03Z"/>
  <path d="M371.59,82.69c1.99-3.4,3.8-6.49,5.6-9.57,16.19,9.73,22.5,25.39,13.33,43.48-1.89,3.73-4.09,7.32-6.45,10.73-8.73,12.59-8.39,17.2,2.48,27.69-1.55,3.21-3.12,6.48-4.69,9.73-13.07-5.9-18.58-22.6-11.83-35.97,1.94-3.84,4.6-7.26,6.92-10.89.87-1.36,1.72-2.74,2.51-4.15,7.14-12.76,5.63-20.58-5.62-29.28-.61-.47-1.22-.96-2.25-1.77Z"/>
  <path d="M327.9,164.92c-14.86-8.47-18.84-24.84-9.84-39.59,2.81-4.6,6.09-8.89,8.59-13.66,5.85-11.18,4.18-18.67-5.39-26.44-1-.81-1.99-1.63-3.17-2.6,1.95-3.31,3.78-6.4,5.59-9.48,17.39,10.57,22.04,27.12,12.05,45.4-2.39,4.37-5.37,8.37-8.06,12.55-5.46,8.51-4.71,15.17,2.74,21.61,2.06,1.78,2.27,3.17.9,5.44-1.25,2.06-2.19,4.34-3.4,6.78Z"/>
</svg>