<?xml version="1.0" encoding="UTF-8"?>
<svg id="Ebene_1" xmlns="http://www.w3.org/2000/svg" viewBox="0 0 512 512">
  <path d="M256.8,448.43c-33.16,0-66.32.01-99.48,0-15.48,0-22.03-5.85-24.37-21.11-6.43-41.95-12.98-83.89-19.48-125.83-.66-4.27-.81-8.71-2.15-12.77-.82-2.48-3-5.31-5.31-6.39-27.24-12.65-40.29-34.17-37.91-63.99,1.42-17.74,10.6-31.26,24.58-41.68,3.54-2.64,5.64-5.62,6.83-9.92,9.43-33.97,25.66-63.82,53.4-86.53,20.25-16.58,43.47-27.32,68.88-32.55,64.98-13.39,118.96,6.07,161.61,56.58,14.68,17.39,24.47,37.61,30.03,59.74,1.38,5.5,3.62,9.94,8.48,13.47,36.78,26.7,30.72,86.35-13.32,103.99-4.47,1.79-6.27,4.55-6.96,9.2-5.72,38.36-11.64,76.68-17.53,115.02-1.26,8.22-2.63,16.43-4,24.64-2.01,11.98-9.28,18.09-21.84,18.11-33.83.05-67.65.02-101.48.02ZM210.28,64.73c-1.48.35-2.14.42-2.75.65-49.22,18.68-81.3,53-94.57,104.23-2.02,7.79-5.36,13.66-12.41,18.26-16.72,10.92-23.74,33.85-17.12,52.72,12.39,35.26,56.34,43.65,81.07,15.47,6.59-7.51,9.13-7.51,15.77.04,8.13,9.25,18.19,14.96,30.51,16.34,15.41,1.72,28.46-3.27,39.52-14,5.36-5.2,7.57-5.12,13.08-.08.86.79,1.68,1.62,2.56,2.38,14.81,12.59,31.35,15.25,49.43,8.41,8.16-3.08,14.44-8.69,19.99-15.32,3.97-4.75,7.5-4.67,11.73-.21,1.26,1.33,2.42,2.75,3.66,4.1,25.16,27.42,62.77,13.88,74.65-6.18,10.84-18.31,12.02-48.06-13.74-64.76-5.52-3.58-8.44-8.16-10.32-14.5-3.49-11.75-6.84-23.85-12.57-34.56-27.74-51.81-71.58-78.48-130.21-80.95-4.04-.17-8.1-.02-12.76-.02,4.45,10.67,6.7,20.16-2.18,28.3-6.37,5.84-13.94,7.1-21.83,3.73-10.37-4.43-12.77-13.24-11.52-24.07ZM125.03,286.49c.89,6.41,1.62,12.17,2.5,17.9,6.17,39.8,12.41,79.59,18.53,119.4,1.56,10.12,2.64,11.29,13.12,11.31,18,.05,35.99.01,53.99.01,47.32,0,94.64.02,141.97-.01,9.53,0,10.94-1.25,12.37-10.48,5.77-37.17,11.53-74.34,17.25-111.52,1.33-8.65,2.5-17.32,3.87-26.82-18.78.44-34.19-6.15-47.07-18.29-24.57,23.23-58.86,24.54-84.62,3.48-29,21.18-57.17,20.13-84.89-3.41-12.78,12.49-28.32,18.65-47.01,18.42ZM236.37,70.39c.02-3.69-2.89-6.68-6.54-6.7-3.54-.02-6.71,3.09-6.72,6.6-.02,3.41,3.26,6.78,6.64,6.82,3.44.04,6.6-3.16,6.62-6.72Z"/>
  <path d="M216.34,218.9c.05-11.16,9.43-20.47,20.45-20.3,10.95.17,19.98,9.35,19.95,20.28-.03,11.15-9.44,20.53-20.45,20.36-10.85-.16-20-9.49-19.95-20.34ZM243.18,219.08c.11-3.7-2.7-6.68-6.4-6.79-3.78-.11-6.61,2.59-6.7,6.41-.1,3.8,2.62,6.75,6.31,6.84,3.57.09,6.68-2.86,6.79-6.46Z"/>
  <path d="M175.98,117.55c10.94.15,20.4,9.85,20.13,20.66-.27,10.94-10.09,20.36-20.84,20-10.78-.36-20.01-9.85-19.87-20.45.14-10.99,9.68-20.35,20.59-20.21ZM175.61,144.53c3.57.08,6.71-2.93,6.8-6.52.09-3.69-2.78-6.68-6.48-6.75-3.71-.07-6.72,2.78-6.8,6.45-.08,3.62,2.88,6.74,6.48,6.82Z"/>
  <path d="M371.69,218.69c-11.06.05-20.16-8.84-20.28-19.81-.12-11.09,9.14-20.42,20.28-20.42,10.99,0,20.11,8.94,20.32,19.9.2,11.1-8.97,20.28-20.31,20.33ZM371.96,192.14c-3.85-.12-6.71,2.5-6.83,6.27-.12,3.68,2.7,6.76,6.32,6.92,3.46.15,6.72-2.89,6.88-6.42.16-3.71-2.6-6.65-6.36-6.77Z"/>
  <path d="M317.65,144.56c-10.93.04-20.07-8.99-20.2-19.94-.13-11.23,8.96-20.43,20.2-20.42,11.07,0,20.06,8.87,20.21,19.91.15,11.13-9.02,20.42-20.21,20.46ZM324.18,124.48c.06-3.6-2.91-6.82-6.39-6.9-3.46-.08-6.57,3.03-6.64,6.64-.07,3.68,2.8,6.77,6.38,6.85,3.55.08,6.59-2.93,6.66-6.59Z"/>
  <path d="M115.05,212.27c11.25.05,20.26,9.2,20.12,20.44-.14,11.01-9.1,19.73-20.29,19.74-11.18,0-19.98-8.73-20.04-19.9-.06-11.37,8.86-20.32,20.21-20.28ZM121.46,232.2c-.1-3.77-3.02-6.56-6.75-6.43-3.54.13-6.66,3.39-6.52,6.83.13,3.34,3.65,6.66,6.93,6.54,3.61-.13,6.43-3.22,6.34-6.95Z"/>
  <path d="M308.2,187.29c-3.16,2.85-5.93,5.36-8.78,7.93-4.15-4.4-8.09-8.58-12.31-13.05,2.44-2.23,5.43-4.96,8.65-7.91,4.11,4.3,7.98,8.35,12.44,13.02Z"/>
  <path d="M166.1,201.86c-2.47-2.69-4.9-5.35-7.1-7.75,4.1-4.45,7.98-8.65,12.16-13.19,2.88,3.02,5.35,5.61,7.9,8.28-4.32,4.22-8.42,8.22-12.97,12.66Z"/>
  <path d="M246.26,120.96c2.07,2.33,4.56,5.14,7.1,7.99-4.3,4.24-8.37,8.26-12.75,12.58-2.45-2.56-5.03-5.25-7.81-8.16,4.59-4.23,8.92-8.22,13.47-12.41Z"/>
  <path d="M388.2,240.96c4.29-4.4,8.2-8.42,12.45-12.79,2.8,3.12,5.4,6.01,7.81,8.7-4.07,4.45-7.82,8.55-11.93,13.04-3.04-3.26-5.59-6.01-8.33-8.95Z"/>
  <path d="M250.75,293.54h12.21v120.45h-12.21v-120.45Z"/>
  <path d="M337.8,408.64c-4.73-.5-8.82-.94-13.41-1.43,4.5-36.02,8.97-71.75,13.5-108.02,4.47.55,8.53,1.05,13.37,1.65-4.49,35.91-8.93,71.45-13.46,107.79Z"/>
  <path d="M162.29,300.86c4.72-.64,8.76-1.18,13.37-1.81,4.53,36.19,9,71.88,13.52,108-4.67.55-8.73,1.03-13.39,1.58-4.51-35.97-8.96-71.51-13.5-107.77Z"/>
</svg>