<?xml version="1.0" encoding="UTF-8"?>
<svg id="Ebene_1" xmlns="http://www.w3.org/2000/svg" version="1.1" viewBox="0 0 1053.96 1068.79">
  <!-- Generator: Adobe Illustrator 29.8.3, SVG Export Plug-In . SVG Version: 2.1.1 Build 3)  -->
  <defs>
    <style>
      .st0 {
        fill: #bd8971;
      }
    </style>
  </defs>
  <path class="st0" d="M634.34,221.12c-1.74,6.06-.61,12.31-1.02,18.49-.58,8.58-3.94,11.48.81,20.22,1.83,3.38,8.01,8.52,7.05,12.59-.57,2.42-7.02,5.07-8.72,8.33-2.06,3.97-3.92,8.94-6.32,13.67-2.96,5.83-6.36,16.95-12.09,19.9-13.82,7.11-25.49-9.83-34.96-7.01-5.19,1.54-12.71,20.21-10.17,25.78,18.17,25.58,34.29,52.77,53.02,77.94,2.48,3.34,10.46,14.95,13.88,14.98s21.23-9.09,25.55-11.35c13.13-6.84,25.47-15.3,38.26-22.72,3.8-2.21,26.35-13.5,27.18-14.8,2.4-3.76-7.9-3.98-9.53-4.51-3.28-1.05-5.91-3.55-6.9-6.89l4.85-3.19,128.99.57c-.07,1.38.29,3.04-.17,4.33-1.17,3.31-28.46,9.78-33.81,12.16-12.39,5.53-18.62,14.38-33.97,18.01-17.29,4.09-30.03-3.87-46.71-1.74-21.93,15.54-41.87,33.82-64.32,48.64-6.22,4.1-28.34,18.16-34.47,18.58-2.22.15-5.1-1.77-7.09-2.82-10.82-5.75-29.92-25.3-39.3-34.67-3.29-3.28-7.29-8.52-10.17-12.3-3.87-2.23-9.15,7.75-11.78,10.34-16.22,16-57.67,46.19-59.87,69.08-2.33,24.18,23.83,80.83,46.83,90.91,2.4,1.05,7.04-.45,2.53,4.48-6.81,7.45-28.78,11.72-38.49,8.99,8.83,25.5,24.3,54.3,25.97,81.51.96,15.6-3.69,21.88-17.3,28.66-8.9,4.43-42.77,16.49-52.38,18.6-1.09.24-2.15.33-3.26.23l1.2-49.3c1.33-4.53,16.92-3.03,16.83-7.22l-23.02-39.48c.29,7.43.42,15.07,1.01,22.48,2.63,33.33,6.97,59.37-8.84,90.19-12.47,24.33-28.26,48.38-41.32,72.66-26.89,49.99-45.86,92.17-60.55,147.41-1.07,4.01-.63,13.41-8.52,11.08-6.15-1.81-11.05-24.49-11.59-30.45-1.17-12.82,2.46-26.48,1.87-39.87-.52-11.71-5.51-20.89,4.46-30.55,6.35-6.15,13.72-4.99,18.52-8.47,9.89-7.17,26.12-68.35,30.97-83.01,3.73-11.28,8.51-22.13,12.01-33.47-21.79,5.86-43.01,14.79-62.63,25.82-14.1,7.93-31.41,18.93-44.24,28.74-4,3.06-21.76,19.78-23.76,20.32-8.67,2.34-3.24-21.83-1.78-25.87,4.87-13.43,15.87-19.27,24.44-29.54,6.21-7.43,15.39-27.5,21.51-31.47,11.66-7.57,15.62,6.07,24.99,7,12.28,1.22,34.41-14.07,44.79-21.18s20.53-15.96,31.36-23.12c2.78-3.3-1.87-8.26-3.16-11.73-9.67-25.9-18.04-52.26-25.64-78.84-16.65.29-33.56,1.74-49.85-2.62-5.27-1.41-25.27-8.01-14.22-14.25,1.1-.62,18.05-5.76,15.22-8.25-19.95,1.45-59.52-15.43-63.73-36.75-1.91-9.69,6.4-6.39,12.19-7.34,54.62-8.96,63.82-41.07,102.59-70.34,17.46-13.18,34.46-18.94,52.76-29.2,23.84-13.36,34.49-37.92,41.09-63.37-6.47,2.71-13.24,4.97-19.66,7.82-21.83,9.69-42.81,21.38-65.3,29.66-25.25,9.29-51.3,14.7-77.15,21.8-23.57,6.48-43.17,17.71-67.97,12.44-1.75-.37-9.97-2.6-10.75-3.24-6.83-5.58,16.35-5.27,17.85-7.6.46-.71.3-3.3-.04-4.21-1.72-4.57-28.66-15.19-34.32-17.66-6.75-7.65,4.8-8.61,10.77-7.78,15.29,2.14,31.03,12.97,46.29,14.68,35.4,3.97,83.59-37.4,114.99-51.78,13.26-6.07,28.5-9.26,41.83-15.14,1.02-.45,11.9-4.96,9.49-6.99l-37.22-4.26c-70.7-13.45-133.08-51.87-174.06-110.83-9.64-13.88-23.71-38.21-27.51-54.47-1.3-5.59-2.72-8.6,4.41-9.46,4.49-.54,19,.49,23.99,1.03,90.7,9.75,179.42,82.05,227.2,156.66,1.7,2.65,3.29,6.28,4.19,9.32,7.88-3.56,14.44-9.48,22.28-13.19,13.4-6.32,42.8-8.57,45.6-26.38,2.09-13.29-4.56-15.76-10.56-25.31-7.51-11.96-13.04-24.73-15.23-38.76-.95-6.1.16-16.92-4.21-20.79-8.2-7.27-16.72-12.73-18.67-25.31-7.94-51.08,58.94-69.09,79.7-23.75,19.62,1.78,36.67,3.94,52.45,16.51,2.99,2.38,5.53,6.28,8.58,8.41,7.79,5.47,16.91,5.25,22.47,15.51,4.64,8.55,1.71,25.25-5.98,31.11-6.63,5.06-4.75-12.06-10.55-13.06Z"/>
  <path class="st0" d="M349.09,132.54c34.91,30.93,67.12,74.98,89.55,115.89,7.85,14.32,19.47,36.59,24.12,51.86.35,1.14,1.22,3.97.56,4.72-.23.26-5.96,2.66-6.41,1.2-7.04-9.21-13.95-18.75-21.48-27.56-34.42-40.25-72.68-69.56-119.22-94.7-5.09-2.75-14.78-5.62-18.12-9.87-1.88-2.4-5.32-13.28-6.24-16.75-4.45-16.82-6.82-39.44-5.33-56.75.8-9.35,6.3-5.9,13.03-2.96,15.78,6.9,36.5,23.37,49.55,34.92Z"/>
  <path class="st0" d="M829.41,307.91c3.25,1.9,10.02-2.77,14.64,4.86,5.4,8.92.57,20.8-6.32,27.38-5.41,5.17-30.16,19.09-36.96,20.02-7.64,1.04-36.47,1.06-44.07,0-18.76-2.62-31.73-32.8-32.47-49.51-.32-7.13.32-12.08,8.5-12.6,7.71-.49,18.94,1.87,26.98,2.1,20.95.6,42.01-.55,62.98-.02,4.28.8,5.44,7.01,6.72,7.77ZM828.86,318.22c-.75.22-3.88,5.17-4.05,5.86-.39,1.59.72,3.5.37,5.41-.55,2.94-1.89,5.41-2.99,8.12-.41,1.01-1.54,2.08.55,2.51,6.1,1.23,18.32-16.21,10.8-20.83-.9-.55-3.7-1.35-4.67-1.07Z"/>
</svg>