<?xml version="1.0" encoding="UTF-8"?>
<svg id="Ebene_1" xmlns="http://www.w3.org/2000/svg" viewBox="0 0 512 512">
  <defs>
    <style>
      .cls-1 {
        fill: #bd8971;
      }
    </style>
  </defs>
  <path class="cls-1" d="M120.67,250.94c-2.13-11.1-4.19-21-5.89-30.96-2.89-16.88,3.29-30.27,16.03-41.22,16.1-13.84,34.94-22.52,54.53-30.03,18.92-7.26,38.79-9.98,58.61-13.06,6.48-1.01,8.33-4.44,4.53-9.78-3.43-4.82-7.65-9.12-11.8-13.38-11.6-11.9-12.82-34.25-2.42-47.27,5.12-6.42,11.62-8.99,20.61-7.7-1.87,1.04-3.13,1.83-4.47,2.45-18.55,8.61-22.97,33.58-8.52,48.25,2.23,2.26,4.56,4.43,6.82,6.67,4.92,4.89,8.76,10.3,8.22,17.48h44.86c.25-.5.5-1,.75-1.5-1.71-1.62-3.36-3.31-5.15-4.84-6.8-5.8-14.15-11.06-20.38-17.41-13.63-13.88-11.04-31.35,6.1-40.56,9.06-4.87,18.9-8.27,28.3-12.52,4.33-1.96,8.63-4.1,12.66-6.6,10.43-6.49,15.56-15.61,13.25-28.19-.28-1.5-.04-3.1-.04-6.35,3.98,6.13,5.95,11.16,4.67,17.12-2.79,12.99-11.83,21-22.76,26.85-9.26,4.95-19.3,8.39-28.73,13.05-20.05,9.9-21.56,25.46-3.58,39.06,8.39,6.35,17.55,11.62,23.71,20.57.98,1.43,3.76,2.06,5.78,2.24,3.92.34,7.88.1,13.03.1-1.92-3.12-3.28-5.21-4.51-7.37-7.11-12.47-6.94-24.7,1.93-36.21,4.72-6.13,10.21-11.66,15.12-17.66,9.85-12.05,13.24-25.7,8.65-40.73-1.47-4.81-4.35-9.18-6.58-13.76.43-.58.85-1.15,1.28-1.73,2.23,1.18,4.98,1.87,6.59,3.62,5.78,6.24,8.29,13.97,8.48,22.36.34,15.36-4.38,28.93-14.91,40.3-3.78,4.08-7.93,7.87-11.36,12.22-11.76,14.92-2.83,38.36,16,41.15,27.32,4.05,53.65,11.17,78.56,23.16,15.17,7.3,28.91,16.61,39.89,29.66,5.89,6.99,8.49,15.2,7.32,23.85-6.28,46.45-12.48,92.93-19.84,139.22-4.06,25.56-12.74,49.91-23.8,73.45-11.56,24.62-30.07,40.84-55.27,50.4-56.9,21.58-113.32,21.04-169.6-2.34-28.15-11.69-44.72-33.5-54.47-61.25-2.24-6.37-5.7-9.81-12.11-11.23-15.7-3.48-31.34-7.21-47-10.89-38.41-9.04-58.94-32.11-66.09-77.04-2.42-15.18-1.87-30.3,5.22-44.31,15.1-29.88,55.67-39.77,83.14-20.55,1.29.9,2.58,1.79,4.65,3.22ZM242.96,143.73c-.32-.66-.64-1.32-.96-1.97-1.66.2-3.35.26-4.97.64-13.91,3.27-27.96,6.1-41.69,10.02-21.42,6.11-40.94,16.13-58.45,30.09-12.18,9.71-17.13,21.61-14.36,37.21,3.44,19.35,6.04,38.84,8.99,58.28,4.69,30.82,8.69,61.76,14.25,92.42,5.31,29.24,22.36,50.49,48.88,63.88,28.79,14.53,59.81,22.02,91.58,24.47,36.64,2.82,71.14-7.71,104.5-22.2,28.45-12.36,46.89-33.33,52.97-63.81,5.32-26.66,9.36-53.58,13.59-80.45,3.52-22.35,5.86-44.9,9.89-67.15,3.07-16.99.06-30.99-13.7-42.21-26.47-21.56-57.06-33.31-90.47-38.45-1.1-.17-2.31.43-3.47.67-.19.72-.39,1.44-.58,2.16,7.53,3.59,14.91,7.58,22.65,10.64,5.12,2.02,10.84,2.46,16.17,4.03,18.95,5.55,36.49,13.82,50.26,28.4,14.4,15.24,13.63,31.13-1.78,45.29-10.13,9.31-22.21,15.32-34.98,19.98-29.42,10.73-60.07,15.08-91.14,16.54-45.12,2.13-89.87-.22-133.41-13.63-15.68-4.83-30.62-11.33-42.67-22.94-7.26-6.99-12.32-15.19-11.48-25.79.95-12.08,8.34-20.34,17.21-27.46,13.13-10.53,28.5-16.29,44.61-20.48,11.71-3.04,23.44-6.13,34.89-10.01,4.92-1.67,9.14-5.39,13.67-8.18ZM362.69,206.98c-.58-.47-1.17-.94-1.75-1.41.09-.57.05-1.2.3-1.69,2.07-4.07,4.23-8.09,6.3-12.16,5.37-10.56,4.91-11.82-7.1-13.06-18.95-1.96-37.96-3.31-56.94-5.05-14.94-1.38-28.17,2.76-40.4,11.29-8.4,5.86-13.48,13.12-13.83,23.63-.18,5.32-1.31,10.61-2.02,15.91-.66-.15-1.33-.3-1.99-.45-4.79-18.92-.84-35.08,16.56-47.19-1.25-.44-1.78-.83-2.25-.76-18,2.86-36,5.68-53.95,8.82-1.1.19-2.49,2.88-2.5,4.41-.03,4.55.74,9.11.85,13.67.06,2.23-.65,4.48-1.02,6.72-.84.02-1.67.04-2.51.05-1.77-6.93-3.55-13.86-5.48-21.41-15.25,5.34-29.75,11.08-40.22,23.65-1.98,2.37-3.36,5.41-4.39,8.35-2.47,7.04-1.37,10.96,4.88,14.82,6.4,3.95,13.03,7.69,19.96,10.57,23.49,9.78,48.29,14.26,73.44,17.05,46.78,5.19,93.28,4.14,139.18-7.2,19.22-4.75,37.54-11.79,52.87-24.96,7.81-6.71,8.23-8.79,1.33-16.46-16.99-18.88-39.81-25.62-62.15-30.26-6.24,8.39-11.7,15.74-17.17,23.08ZM123.89,287.34c-.86-7.01-.88-12.87-2.47-18.27-1.29-4.38-3.71-9-6.95-12.15-22.16-21.52-64.9-12.39-76.31,16.36-9.03,22.75-4.47,44.94,4.56,66.58,7.43,17.81,20.2,30.71,38.52,36.65,15.61,5.07,31.81,8.33,47.78,12.27,4.5,1.11,9.11,1.81,14.29,2.82-2.22-8.96-4.49-16.99-6.13-25.15-1-4.94-3.12-6.65-8.31-6.58-14.01.2-27.68-2.28-40.9-7.02-3.62-1.3-7.24-2.58-12.23-4.36,1.8,3.06,3.01,4.66,3.72,6.45.63,1.6.72,3.42,1.05,5.14-1.81-.48-4.06-.44-5.38-1.53-15.77-13.03-20.8-30.55-19.7-50.11.81-14.48,6.33-26.78,20.28-33.36,12.28-5.8,23.6-1.99,34.46,4.47,4.19,2.49,8.47,4.82,13.71,7.79ZM133.93,352.88c-3.21-19.09-6.05-36.29-9.09-53.46-.3-1.69-1.47-3.8-2.88-4.61-7.04-4.05-14.14-8.05-21.5-11.49-14.5-6.77-29.14-1.1-34.52,13.61-4.02,10.98-3.21,22.43.11,33.37,1.06,3.48,4.8,7.13,8.24,8.7,8.24,3.78,16.82,7.28,25.64,9.23,10.87,2.4,22.12,3.11,34,4.65ZM418.95,430.87c-82.35,47.54-164.35,48.57-247.41-.23,1.16,2.39,1.64,3.63,2.32,4.75,6.48,10.67,15.66,18.45,26.59,24.19,39.17,20.54,80.77,26.65,124.34,20.52,25.03-3.52,48.87-10.78,70.74-23.69,10.25-6.05,17.92-14.63,23.42-25.53ZM207.64,176.07c1.76.08,2.37.23,2.93.12,21.61-4.16,43.19-8.24,65.34-8.89,9.02-.26,17.81-3.31,23.99-12.74-24.62.4-48.42-1.39-71.25,7.24-7.81,2.95-14.92,7.02-21.01,14.27ZM201.23,167.36c-5.87,1.82-10.76,3.15-15.53,4.85-13.12,4.67-25.97,10-36.1,19.97-7.89,7.76-11.94,16.85-8.2,27.93,5.02-6.27,8.92-13.67,14.99-18.11,9.63-7.06,20.26-13.22,31.3-17.71,8.05-3.27,10.51-8.99,13.54-16.93ZM301.43,165.9c23.1,2.14,45.69,4.23,68.16,6.31-.57-6.85-3.38-11.43-9.36-12.23-15.7-2.1-31.46-3.74-47.22-5.33-1.62-.16-3.93.83-5.02,2.08-2.56,2.92-4.57,6.31-6.56,9.17ZM377.25,163.5c.14,10.19,1.85,11.75,11.4,14.96,12.37,4.17,24.99,8.02,36.62,13.79,9.03,4.49,16.71,11.71,25.39,18-.44-1.81-.4-3.98-1.42-5.35-4.2-5.67-8.02-11.9-13.26-16.45-11.93-10.36-26.95-14.93-41.63-19.87-5.53-1.86-11.18-3.34-17.1-5.08ZM306.58,138.62c-1.04-.24-1.8-.6-2.53-.56-15.22.67-30.46,1.25-45.67,2.15-4.86.29-7.47,3.68-9.28,9.24,19.6-1.07,38.43-2.1,57.48-3.14v-7.69ZM350.23,150.79c-10.18-12.02-23.52-11-36.51-12.44v8.81c12.09,1.2,23.67,2.36,36.51,3.64Z"/>
  <path class="cls-1" d="M438.67,305.82c.27,1.84.94,3.72.74,5.5-2.47,22.29-4.25,44.77-12.33,65.96-7.77,20.37-20.91,35.02-43.78,38.31-2.11.3-4.26.29-6.39.42-.22-.48-.44-.96-.66-1.44,2.59-1.41,5.03-3.35,7.8-4.15,19.42-5.63,30.68-20.08,36.88-37.67,5.22-14.82,6.82-30.9,10.22-46.38,1.54-7.01,3.56-13.9,5.36-20.85.71.1,1.43.2,2.14.3Z"/>
  <path class="cls-1" d="M206.39,423.07c-15.72-.14-32.68-11.05-36.81-24.36-4.15-13.4-6.58-27.32-9.65-41.04-.31-1.41.16-2.99.26-4.49.55-.21,1.11-.42,1.66-.64,1.08,2.21,2.51,4.31,3.19,6.64,3.2,10.82,6.17,21.72,9.29,32.57,3.33,11.58,10.85,19.54,21.5,24.87,3.24,1.62,6.21,3.77,10.56,6.45Z"/>
  <path class="cls-1" d="M367.37,245.18c1.77-.69,3.52-1.43,5.31-2.05,12.92-4.45,25.83-8.91,38.77-13.3,7.02-2.38,13.1-5.65,15.34-13.51.38-1.33,1.8-2.36,3.26-4.18,2.71,5.17,1.48,9.26-1.12,12.7-1.98,2.61-4.67,4.99-7.54,6.56-16.74,9.18-34.78,13.72-54.02,13.78Z"/>
  <path class="cls-1" d="M43.48,296.14c-3.79-20.33,10.51-34.75,22.14-36.88-12.44,9.23-19.87,21.44-22.14,36.88Z"/>
</svg>