<?xml version="1.0" encoding="utf-8"?>
<!-- Generator: Adobe Illustrator 29.8.3, SVG Export Plug-In . SVG Version: 9.03 Build 0)  -->
<svg version="1.0" id="Ebene_1" xmlns="http://www.w3.org/2000/svg" xmlns:xlink="http://www.w3.org/1999/xlink" x="0px" y="0px"
	 viewBox="0 0 1344 974.97" style="enable-background:new 0 0 1344 974.97;" xml:space="preserve">
<style type="text/css">
	.st0{fill:#BD8971;}
	.st1{fill:#3C3C3B;}
</style>
<g>
	<path class="st0" d="M507.11,180.16c-1.74,6.06-0.61,12.3-1.02,18.48c-0.58,8.57-3.94,11.48,0.81,20.21
		c1.83,3.38,8.01,8.52,7.05,12.59c-0.57,2.42-7.02,5.06-8.72,8.32c-2.06,3.97-3.92,8.93-6.32,13.67
		c-2.96,5.83-6.36,16.95-12.09,19.89c-13.82,7.11-25.49-9.82-34.96-7.01c-5.19,1.54-12.71,20.2-10.17,25.76
		c18.17,25.57,34.29,52.74,53.02,77.91c2.48,3.34,10.46,14.94,13.88,14.98c3.44,0.04,21.23-9.09,25.55-11.34
		c13.13-6.84,25.47-15.29,38.26-22.71c3.8-2.21,26.35-13.49,27.18-14.8c0.32-0.49,0.41-0.93,0.34-1.31
		c-0.37-1.84-5.04-1.09-9.87-3.2c-3.16-1.38-7.4-4.41-6.9-6.89c0.37-1.84,0.04-3.42,4.85-3.19c4.81,0.23,127.39,0.55,128.99,0.57
		c0.58,0.02,0.09,2.63-0.38,4.28c-2.93,8.31-17.95,7.59-33.6,12.21c-18.74,5.54-17.96,14.22-33.97,18
		c-17.29,4.09-30.03-3.87-46.71-1.74c-21.93,15.53-41.87,33.81-64.32,48.62c-6.22,4.1-28.34,18.16-34.47,18.57
		c-2.22,0.15-5.1-1.77-7.09-2.82c-10.82-5.75-29.92-25.29-39.3-34.66c-3.29-3.28-7.29-8.51-10.17-12.29
		c-3.87-2.23-9.15,7.75-11.78,10.34c-16.22,15.99-57.67,46.17-59.87,69.05c-2.33,24.17,23.83,80.79,46.83,90.87
		c2.4,1.05,7.04-0.45,2.53,4.48c-6.81,7.44-28.78,11.72-38.49,8.98c8.83,25.49,24.3,54.27,25.97,81.47
		c0.96,15.59-3.69,21.87-17.3,28.65c-8.9,4.43-42.77,16.49-52.38,18.59c-1.09,0.24-2.15,0.33-3.26,0.23l1.2-49.28
		c1.33-4.53,16.92-3.03,16.83-7.21l-23.02-39.46c0.29,7.43,0.42,15.06,1.01,22.47c2.63,33.32,6.97,59.34-8.84,90.15
		c-12.47,24.31-28.26,48.36-41.32,72.62c-26.89,49.96-45.86,92.13-60.55,147.34c-1.07,4.01-0.63,13.4-8.52,11.08
		c-6.15-1.81-11.05-24.48-11.59-30.43c-1.17-12.82,2.46-26.47,1.87-39.85c-0.52-11.71-5.51-20.88,4.46-30.54
		c6.35-6.14,13.72-4.99,18.52-8.47c9.89-7.16,26.12-68.32,30.97-82.97c3.73-11.27,8.51-22.12,12.01-33.46
		c-21.79,5.86-43.01,14.78-62.63,25.81c-14.1,7.92-31.41,18.92-44.24,28.72c-4,3.06-21.76,19.77-23.76,20.31
		c-8.67,2.34-3.24-21.82-1.78-25.86c4.87-13.42,15.87-19.26,24.44-29.53c6.58-7.87,14.81-26.79,21.51-31.46
		c11.54-8.05,15.28,6.04,24.99,7c12.28,1.21,34.41-14.07,44.79-21.17c10.7-7.32,20.53-15.95,31.36-23.1
		c2.78-3.3-1.87-8.26-3.16-11.72c-9.67-25.89-18.04-52.24-25.64-78.81c-16.65,0.29-33.56,1.74-49.85-2.62
		c-5.27-1.41-25.27-8-14.22-14.24c1.1-0.62,18.05-5.76,15.22-8.25c-19.95,1.45-59.52-15.42-63.73-36.73
		c-1.91-9.69,6.4-6.38,12.19-7.33c54.62-8.95,63.82-41.05,102.59-70.31c17.46-13.18,34.46-18.94,52.76-29.19
		c23.84-13.36,34.49-37.91,41.09-63.34c-6.47,2.71-13.24,4.97-19.66,7.82c-21.83,9.69-42.81,21.37-65.3,29.64
		c-25.25,9.28-51.3,14.69-77.15,21.79c-23.57,6.47-43.17,17.71-67.97,12.43c-1.75-0.37-9.97-2.6-10.75-3.24
		c-6.83-5.58,16.35-5.27,17.85-7.6c0.46-0.71,0.3-3.3-0.04-4.2c-1.72-4.57-28.66-15.18-34.32-17.65c-6.75-7.65,4.8-8.61,10.77-7.77
		c15.29,2.14,31.03,12.97,46.29,14.67c35.4,3.97,83.59-37.38,114.99-51.75c13.26-6.07,28.5-9.26,41.83-15.14
		c1.02-0.45,11.9-4.96,9.49-6.99L283,302.85C212.3,289.41,149.91,251,108.94,192.06c-9.64-13.87-23.71-38.19-27.51-54.44
		c-1.3-5.59-2.72-8.6,4.41-9.45c4.49-0.54,19,0.49,23.99,1.03c90.7,9.74,179.42,82.01,227.2,156.59c1.7,2.65,3.29,6.28,4.19,9.32
		c7.88-3.56,14.44-9.48,22.28-13.18c13.4-6.32,42.8-8.57,45.6-26.36c2.09-13.28-4.56-15.75-10.56-25.29
		c-7.51-11.95-13.04-24.72-15.23-38.74c-0.95-6.09,0.16-16.91-4.21-20.78c-8.2-7.26-16.72-12.72-18.67-25.3
		c-7.94-51.06,58.94-69.06,79.7-23.74c19.62,1.78,36.67,3.93,52.45,16.51c2.99,2.38,5.53,6.27,8.58,8.41
		c7.79,5.46,16.91,5.25,22.47,15.51c4.64,8.55,1.71,25.23-5.98,31.1C511.03,198.27,512.91,181.16,507.11,180.16z"/>
	<polygon class="st1" points="1216.66,432.04 1216.66,455.03 1121.72,455.03 1121.72,512 1206.67,512 1206.67,534.99 
		1121.72,534.99 1121.72,591.96 1220.66,591.96 1220.66,615.95 1096.74,615.95 1096.74,432.04 	"/>
	<polygon class="st1" points="1048.77,432.04 1048.77,455.03 952.83,455.03 952.83,512 1037.77,512 1037.77,534.99 952.83,534.99 
		952.83,591.96 1051.77,591.96 1051.77,615.95 928.84,615.95 928.84,432.04 	"/>
	<path class="st0" d="M221.86,91.62c34.91,30.91,67.12,74.95,89.55,115.84c7.85,14.32,19.47,36.57,24.12,51.84
		c0.35,1.14,1.22,3.97,0.56,4.72c-0.23,0.26-5.96,2.66-6.41,1.2c-7.04-9.21-13.95-18.74-21.48-27.55
		c-34.42-40.23-72.68-69.52-119.22-94.66c-5.09-2.75-14.78-5.62-18.12-9.87c-1.88-2.4-5.32-13.27-6.24-16.74
		c-4.45-16.82-6.82-39.42-5.33-56.72c0.8-9.35,6.3-5.9,13.03-2.96C188.09,63.61,208.82,80.07,221.86,91.62z"/>
	<path class="st1" d="M571.04,580.97l9.59,22.01c-51.2,33.5-126.61,11.32-143.21-49.78c-11.28-41.51,2.95-89.25,40.77-111.59
		c29.74-17.56,71.19-15.14,100.43,2.4l-10.12,23c-26.31-16.57-56.26-19.83-81.9,0.01c-43.35,33.55-33.5,113.39,23.48,125.45
		C532.02,597.11,552.29,592.72,571.04,580.97z"/>
	<polygon class="st1" points="885.87,432.04 885.87,455.03 800.92,455.03 800.92,514 874.88,514 874.88,537.99 800.92,537.99 
		800.92,615.95 775.94,615.95 775.94,432.04 	"/>
	<path class="st1" d="M702.98,599.96c-25.85,31.62-80.9,22.63-91.46-17.97c-13.56-52.15,32.63-95.21,80.8-66.82L703.47,526l1.51-16
		h21.99v105.95h-23.99V599.96z M695.63,588.61c10.27-11.2,10.84-39.28,0.86-50.63c-26.44-30.08-76.79-1.02-60.26,39.28
		C645.68,600.28,678.6,607.19,695.63,588.61z"/>
	<path class="st0" d="M587.05,709.9c0.36-0.29,0.64-0.7,1-1C587.72,709.49,587.18,709.71,587.05,709.9z"/>
	<path class="st0" d="M588.05,708.9c1.43-2.49,5.31-12.02,5.76-14.73c1.07-6.51,0.7-10.77-4.81-14.7c-8-5.72-35.41-7.35-45.46-6.58
		c-21.87,1.66-64.69,20.46-80.89,33.97c-6.55,5.46-13.98,12.22-15.53,21.04l-2.92-7.56c1.44-15.86,14.71-25.02,27.01-32.83
		c27.07-17.18,70.34-32.02,102.08-25.29c12.22,2.59,24.53,12.17,25.81,25.15c3.35,34.12-24.67,45.48-50.01,59.03
		c15.64,9.33,23.41,22.73,15.75,40.74c-11.34,26.62-71.08,53.78-98.25,57.67c-14.27,2.04-38.59-3.28-41.99-19.89
		c-0.34-1.66-0.88-9.6-0.44-10.05c3.81-3.82,7.3,13.23,7.93,14.3c3.84,6.61,22.42,6.06,29.05,4.68c-0.1-2.24-0.97-3.81-0.79-6.18
		c0.63-8.19,10.2-33.76,13.89-42.18c1.99-4.55,8.4-13.66,9.42-17.56c1.47-5.62,0.18-14.16,5.39-18.6
		c9.9-8.43,11.7-15.79,18.22-26.76c5.01-8.44,11.03-16.63,15.6-25.38c1.94-3.71-0.45-7.12,6.28-4.81
		c14.63,5.01-2.37,23.04-5.13,30.73c-2.58,1.99-13.24,17.65-12.91,19.27c0.73,3.55,12.19-0.09,14.99,0.51l-3.99-1.98
		c3.71-0.01,7.33,0.23,11.03-0.47c3.22-0.61,12.63-5.11,16.22-6.77c9.74-4.52,25.7-13.96,34.71-20.76c-0.12,0.15,0.22,1.11-0.28,1.7
		c-1.03,1.21-4.25,1.99-4.72,4.29l8.02-5.46c3.45-2.61,4.77-6.49,6.94-10.03c-2.49-0.49-2.53,3.36-3.28,4.23
		C590.01,708.46,588.63,708.42,588.05,708.9z M547.07,665.93c-2.18,0.18-4.24-0.93-6.39-0.91c-0.81,0.01-4.75,0.47-4.59,1.89
		c2.48-0.05,5.01,0.11,7.5,0.01C544.8,666.87,547.31,667.68,547.07,665.93z M535.08,666.93c-3.68-0.15-7.47,0.53-11,1.48
		c-1.29,0.35-4.79,0.95-4.98,2.5L535.08,666.93z M488.11,683.93c-3.77-1.54-4.9,1.52-5.27,1.68c-1.95,0.84-4.34-0.88-3.71,2.31
		L488.11,683.93z M487.11,686.92c-3.36,0.23-7.93,2.17-9.99,4.98c1.58,0.21,2.85-0.67,4.19-1.29
		C482.9,689.88,486.21,688.36,487.11,686.92z M551.49,787.28c1.05-1.09,2.6-1.53,3.6-2.89c8.73-11.85,7.41-28.07-8.97-31.06
		c-10.89-1.99-14.93,2.6-24.05,6.02c-7.57,2.84-13.02,4.99-19.62,8.33c-1.89,0.96-4.46,0.76-6.33,1.74
		c-8.95,14.22-15.21,30-21.3,45.62c-2.03,5.2-6.29,10.27-5.67,16.76c0.91,1.29,13.31-2.12,15.52-2.92
		C504.23,821.84,537.1,802.22,551.49,787.28z M510.1,759.89c-4.72-0.21-9.58,1.12-12.97,4.5L510.1,759.89z M476.13,797.86
		c1.21-0.29,2.22-1.62,2.84-2.64c2.12-3.49,6.17-11.95,8.02-15.97c1.05-2.28,2.16-4.81,2.11-7.37c-2.74,2.25-4.47,6.36-6.1,9.49
		c-1.42,2.72-1.45,2.75-2.94,5.19C478.73,788.74,477.75,795.02,476.13,797.86z M471.12,806.86c-2.68-0.51-1.73,0.59-2.44,2
		c-1.3,2.6-2.72,6-2.54,8.98L471.12,806.86z M505.1,822.86c-3.94,0.77-9.06,3.16-11.99,5.98
		C497.67,828.42,502.82,827.31,505.1,822.86z"/>
	<path class="st0" d="M587.05,709.9c-0.42,0.67-1.87,0.82-2,1C585.92,710.23,586.82,710.09,587.05,709.9z"/>
	<path class="st0" d="M584.06,712.9c0.14-0.11,0.27-1.43,1-2C584.81,711.25,584.75,712.06,584.06,712.9z"/>
	<path class="st0" d="M1114.73,717.9c-0.99,4.31-2.65,6.55-4.22,10.28c-0.37,0.89-1.77,2.89,0.21,2.71
		c4.33-8.23,12.33-13.04,18.66-19.32c6.66-6.61,13.14-16.02,21.38-21.1c1.59-0.98,2.97-1.84,4.95-1.54l-1.01,1.98
		c1.1,0.2,5.59,0.75,5.9,1.11c2.45,2.87-14.84,47.09-15.83,55.45c-0.55,4.64,7.4-1.85,8.41-2.6c5-3.71,20.58-17.66,23.35-22.62
		c4.26-7.63,7.47-17.51,10.69-25.25c1.07-2.56,4.71-3.47,2.41-8.32c-0.55-1.17-1.88-0.68-1.94-0.77c-0.72-1.02,5.18-1.77,1.99-4.97
		c7.69,2.51,8.68-2.16,1.02-1.5c1.1-1.21,0.85-2.99,1.56-4.42c9.17-18.42,26.88-42.34,40.39-58.56c0.86-1.03,4.17-4.59,5.02-4.98
		c4.53-2.11,11.22,3.66,9.23,8.21c-1.62,3.71-14.8,15-18.59,19.38c-5.57,6.43-20.38,25.01-23.07,31.95
		c-0.6,1.55-0.35,4.34-0.73,4.76c-0.38,0.42-2.06,0.19-2.86,0.69c-0.68,0.42-4.34,11.79-5.93,14.1c-0.94,1.37-3.02,0.21-2.99,0.82
		c0.05,1.08,2.08,2.53-0.05,4.06c-0.34,0.24-1.94-0.62-1.99-0.53c-0.41,0.74,0.99,3.25,0.57,5.03c-0.35,1.46-2.62,3.07-2.59,4.96
		l-1.97-1.98l-1.01,5.98c4.49,1.02,6.5-2.97,9.97-4.5c-2.31,3.8-4.06,7.86-6.31,11.7c-5.09,8.67-12.08,14.69-13.37,25.58
		c-0.63,5.3-1.37,17.76,1.71,21.73c7.46,9.62,25.29-5.4,34.99-4.02c-7.99,5.92-19.7,16.52-30.22,12.23
		c-9.48-3.86-16.93-15.33-14.74-25.72l2.98,1l0.52-7.97c-1.98,1.85-2.24,9.15-4,3.98c-3.17,4.2-10.42,10.96-15.46,12.53
		c-0.89,0.28-7.7,1.73-8.02,1.47c-0.18-0.15-0.28-2.59-0.92-3.4c-0.69-0.88-2.31-0.44-2.73-0.9c-0.59-0.64-3.71-4.44-3.83-4.72
		c-3.26-7.56,5.42-26.78,8.51-34.43l2.46-9.53c-8.01,7.21-15.82,14.92-23.06,22.94c-3,3.33-6.33,6.97-9.4,10.57
		c-5.01,5.87-17.65,26.09-24,28.06c-8.94,2.78-4.4-8.43-3.51-12.58c-19.31,15.04-28.87-7.47-20.5-24l-28.47,30.99
		c-10.53,7.8-16.32-1.96-13.49-12l1,5.99c3.4-0.78,0.89-4.1,1.18-4.86c0.18-0.49,3.55-6.38,4.63-8.81
		c1.66-3.76,6.72-11.53,7.17-14.83c0.27-1.99-1.44-2.07-1.98-1.48c-0.18,0.2-0.52,3.86-1.09,5.24c-0.28,0.67-1.49,0.74-1.63,0.99
		c-0.14,0.25,1.63,3.39-3.28,2.27l23.97-41.03c2.59-1.63,12.66,1.76,9.35,6.36c-12.57,17.06-25.75,34.34-31.33,55.15
		c1.89,0.44,2.37-1.07,3.5-1.99c9.47-7.68,17.6-18.09,25.98-26.99l1.48,1.99c-0.65-4.54,3.51-5.58,5.97-8.76
		c4.85-6.31,9.26-13.32,14-19.74c3.75-3.72,10.23-0.35,9.75,4.88c-0.24,2.56-7.38,11.59-9.09,14.77
		c-5.01,9.32-11.31,21.94-12.59,32.4c-0.15,1.25,0.01,2.01,1.45,1.43c1.4-0.57,6.77-4.38,8.42-5.58
		c8.48-6.14,17.95-14.18,21.09-24.39l1.97,2.98l6.8-14.7l-2.78,0.71c1.54-6.01,5.32-13.49,8.79-18.68c0.87-1.3,1.13-2.73,3.19-2.29
		c-3.75,5.26-4.92,11.78-8.97,16.49c4.29-0.41,5.46-8.21,7.7-12.23c0.58-1.05,1.71-1.23,2.17-2.1c2.05-3.87,3.72-7.98,6.09-11.68
		c0.24-2.9-1.24-0.85-1.84,0.16c-2.01,3.37-1.54,6.46-5.65,8.35c-0.75,0.16-0.64-0.97-0.48-1.48c0.79-2.46,11.1-19.66,12.98-21.51
		c-0.53,1.66-0.05,4.03-1.99,5.5c2.91,1.17,6-6.62,6.98-9.5c-1.43,0.4-2.19,2.58-3.33,3.65c-0.52,0.48-1.53,0.21-1.66,0.34
		c0.23-0.74-0.17-2.06,0.55-2.9l23.69-40.81c2.3-2.27,10.81-0.04,11.61,2.4c0.97,2.95-3.71,10.24-5.45,13.24
		c-8.65,14.96-20.65,30.99-30.3,45.75c-1.28,1.96-1.18,6.07-5.14,7.86c-1.27,0.57-2.68-0.85-2.95-0.56c-2.2,2.4,2.82,1.86,2.97,2.02
		c2.06,2.24-2.98,6.05-3.84,7.61C1121.07,706.62,1119.1,714.21,1114.73,717.9c0.57-2.49,0.43-4.69,1.8-7.66
		c2.05-4.45,5.21-8.41,6.19-13.33c-1.34,0.27-2.56,3.13-3.15,4.33c-3.53,7.1-6.7,14.35-10.81,21.17L1114.73,717.9z M1128.73,677.92
		c1.92-0.49,2.25-2.21,1.98-3.99C1130.22,672.89,1128.32,676.62,1128.73,677.92z M1196.67,677.92c-1.09-1.09-3.08,0.9-1.99,1.99
		S1197.76,679.01,1196.67,677.92z M1126.73,687.92l-0.52,2.97C1127.74,689.87,1128.69,687.74,1126.73,687.92z M1191.18,688.91v1
		C1191.83,689.58,1191.83,689.25,1191.18,688.91z M1144.7,728.89l3-13.99l-4.54,11L1144.7,728.89z M1040.76,724.89
		c0.72-1.4-0.63-2.67-0.98-1.99C1039.07,724.31,1040.42,725.57,1040.76,724.89z M1067.75,729.89c0.72-1.4-0.63-2.67-0.98-1.99
		C1066.05,729.3,1067.4,730.57,1067.75,729.89z M1143.21,729.89v1C1143.86,730.56,1143.86,730.23,1143.21,729.89z"/>
	<path class="st0" d="M702.18,266.91c3.25,1.9,10.02-2.77,14.64,4.86c5.4,8.91,0.57,20.79-6.32,27.36
		c-5.41,5.17-30.16,19.09-36.96,20.01c-7.64,1.04-36.47,1.06-44.07,0c-18.76-2.62-31.73-32.78-32.47-49.48
		c-0.32-7.12,0.32-12.08,8.5-12.59c7.71-0.49,18.94,1.87,26.98,2.1c20.95,0.6,42.01-0.55,62.98-0.02
		C699.74,259.95,700.9,266.16,702.18,266.91z M694.79,296.34c-0.15,0.31-0.73,1.45-0.26,2.18c0,0,0.28,0.44,0.97,0.58
		c2.6,0.54,14.8-16.1,10.8-20.82c-1.07-1.26-3.18-1.55-4.67-1.07C696.11,278.98,696.81,292.13,694.79,296.34z"/>
	<path class="st0" d="M1213.83,723.68c-0.25-0.19-0.07-1.37-0.32-1.56c-1.47-1.09-8.12,4.4-9.34,6.77
		c-1.92,3.73-6.99,20.24-0.14,19.94c4.75-0.2,19.65-7.24,23.97-10.11c8.57-5.68,19.25-14.4,27.13-20.8c2.18-1.77,3.87-4.2,6.03-6.01
		c3.21-0.15-1.17,1.87,2.48,2.48c-2.53,1.98-4.15,5.91-5.98,8.01c-9.37,10.76-31.53,30.96-44.84,35.16
		c-10.23,3.23-20.4-8.57-20.22-18.18c0.22-11.78,6.69-26.71,13.09-36.47l1.48,1.99l9.49-9c-1.53-3.61-3.89,2.35-5.97,1.52
		c5.4-8.04,22.62-24.68,32.5-24.37c2.81,0.09,7.1,5.17,7.29,7.52c0.1,1.26-1.62,2.43-1.8,3.88c-0.79,6.64,0.23,9.08-3.39,15.6
		c-6.54,11.79-19.08,17.46-30.17,23.81C1214.59,724.16,1214.26,723.99,1213.83,723.68z M1240.64,687.92
		c-1.16-1.19-16.77,11.32-18.51,12.96c-2.01,1.9-13.1,13.98-11.46,16.02C1222.33,710.48,1237.37,701.7,1240.64,687.92z"/>
	<path class="st0" d="M655.01,157.17c0.37,3.32-2.45,5.49-2.93,8.55c-3.16,19.93,12.12,22.99,20.35,36.5
		c7.5,12.33,4.6,29.1-8.48,36.34c-16.31,9.03-1.12-9.53-0.17-14.15c4.23-20.42-25.26-25.44-25.81-45.8
		C637.78,171.97,646.28,155.32,655.01,157.17z"/>
	<path class="st0" d="M631.16,208.28c1.02-0.64,4.55-0.06,5.93,0.3c8.53,2.26,10.98,14.28,9.68,21.82
		c-0.83,4.8-10.13,18.89-15.33,14.81c-4.04-3.17,4.44-12.12,4.63-17.6c0.07-1.96-0.88-6.54-1.55-8.46
		C633.66,216.69,628.03,210.25,631.16,208.28z"/>
	<path class="st0" d="M669.75,697.07c11.58-2.1,11.32,15.48-1.31,14.75C661.4,711.42,663.8,698.15,669.75,697.07z"/>
	<path class="st0" d="M1076.45,680.63c-1.91,2.37-10.71,3.57-12.25,1.35c-1.78-2.56,0.55-10.35,2.98-12.13
		C1072.61,665.86,1082.07,673.65,1076.45,680.63z"/>
	<path class="st0" d="M1101.42,678.62c-2.46,3.29-14.14,5.85-13.62-2.1C1088.83,660.72,1108.43,669.24,1101.42,678.62z"/>
	<path class="st0" d="M701.69,706.62c-3.26,3.97-13.91,5.31-13.41-3.07C689.12,689.56,709.6,696.98,701.69,706.62z"/>
	<path class="st0" d="M809.92,719.9c-5.38,5.01-10.85,9.71-15.99,14.99c-1.32,0.38-2.55,1.15-4,0.99c3.82-3.78,7.9-7.91,12.08-11.4
		C804.44,722.45,807.81,721.37,809.92,719.9z"/>
	<path class="st0" d="M809.92,719.9c0.34-0.32,0.64-0.69,1-1C810.58,719.27,810.61,719.41,809.92,719.9z"/>
	<path class="st0" d="M997.8,762.88c4.87-14.81,10.73-28.13,17.98-41.97l-5.42,4.05c-5.71,5.52-17.55,22.98-24.26,24.71
		c-1.07,0.28-4.64,0.59-5.18,0.11c-0.16-1.16-0.68-2.38-0.71-3.54c-0.19-6.2,2.75-12.28,3.11-18.34c-2.11,2.53-4.31,5.05-6.34,7.65
		c-7.4,9.47-15.54,23.32-24.62,32.35c-6.69,6.64-13.14,3.74-13.52-5.02c-4.81,1.97-6.72,7.11-12.54,7.08
		c-0.53,0-6.44-4.45-6.74-5.32c-1.95-5.68-1.24-19.21,3.29-23.75c0.73,2.39-2.75,7.49,0,8.99l3.02-13.47l-3,2.48
		c-0.46-3.62,2.54-7.49,2.99-10.51c0.29-1.94-0.39-1.58-1.98-1.47l-42.94,51.55c-3.76,1.96-5.08-3.49-5.05-6.59l-1.98,1.01l-0.5-8
		c-5.26,3.98-10.54,9.44-16.01,12.97c-10.19,6.59-22.29,9.3-29.07-4.06c-8.84,4.62-14.84,9.31-25.68,6.87
		c-6.83-1.54-16.98-19.2-19.19-25.77c-9.94,10.04-20.32,19.81-28.9,31.07c-1.86,2.45-8.94,14.98-10.91,14.8
		c-4.32-0.38-8.39-10.01-8.47-13.58c-0.01-0.59,3.37-5.42,0.3-5.29c-0.6,0.03-7.28,6.72-9.16,7.82
		c-17.84,10.41-26.86-0.96-26.33-18.83c-1.39-1.88-15.29,21.23-27.72,16.23c-3-1.21-6.11-4.93-7.02-8.02
		c-0.34-1.15,0.76-2.46,0.51-3.04c-0.07-0.16-1.55-0.12-1.72-0.84c-1.47-6.15,2.61-11.37,2.97-17.33c-3.98,3.88-6.89,8.79-10.47,13
		c-4.47,5.24-18.22,21.24-24.25,21.79c-4.4,0.4-8.63-6.02-8.07-10.03c0.24-1.69,2.11-8.84,3.8-6.28l1.01,3.51
		c-1.01-4.23,8.69-17.8,7-19.98c-1.66-2.14-1.9,1.33-1.99,1.41c-1.42,1.24-1.24,0.1-0.98-0.87c0.94-3.49,3.43-6.04,3.96-9.54
		l-3.96,0.54l-7.01-8.53c-2.6,5.33-9.84,9.28-14.06,13.45c-7.12,7.03-16.69,18.64-21.73,27.22c-1.95,3.32-8.92,20.89-12.56,20.22
		c-3.15-0.57-7.62-8.7-5.38-12.19c7.87-19.64,21.36-40,28.22-59.73c1.07-3.08,1.97-5.59,1.52-8.98c25.43,3.54-3.06,30.3-5.99,42.98
		c4.42-2.92,7.44-7.76,11.48-11.04c0.87-0.7,2.57-0.06,3.02-0.88c0.35-0.65-0.61-1.96,0.37-3.58c2.38-3.93,10.93-9.73,13.93-14.12
		c3.98-5.82,5.78-25.24,16.14-20.84c0.6,0.26,3.24,2.89,3.52,3.5c2.24,4.91-2.28,4.75-3.23,6.24c-0.54,0.85-0.2,2.49-0.83,3.62
		c-3.23,5.77-5.94,11.02-5.42,18.11c2.34-1.41,3.05-0.33,4.98,0.99c2.18-7.45,7.72-13.25,11.8-19.69c2.79-4.4,1.58-8.36,7.25-6.87
		c4.6,1.21,7.16,2.53,5.15,7.29c-2.27,5.38-12.19,15.78-16.07,21.92c-3.07,4.85-8.04,13.58-10.31,18.66
		c-1.53,3.42-3.44,9-4.38,12.63c-0.25,0.98-1.2,2.3,0.55,2.04c-0.1-1.09,0.41-1.7,1.22-2.34c10.89-8.46,19.75-19.63,29.75-28.3
		c2.24-1.94,6.17-7.51,8.41-10.45c2.05-2.7,11.28-16.73,12.61-17.44c3.33-1.78,8.37,3.29,7.99,7c-0.23,2.26-9.45,14.96-11.38,18.67
		c-4.72,9.07-8.26,18.93-10.62,28.85c1.09,0.06,2.21,0.08,3.28-0.2c2.12-0.55,24.72-18.59,26.12-20.85
		c1.27-2.04,1.21-5.96,2.38-8.61c4.47-10.07,11.68-21.67,20.15-28.82c2.14-1.81,10.93-8.14,13.19-8.79
		c5.71-1.65,12.87,0.37,13.79,6.9c1.41,10.02-6.31,14.02-12.95,19.41c0.46-6.7,4.73-11.97,6-18.48l-5.97,3.02
		c-14.86,11.38-32.95,35.23-31.01,54.94c0.44,4.47,1.15,7.45,6.27,6.31c1.72-0.38,11.75-6.01,13.62-7.4
		c2.21-1.64,12.67-9.98,13.69-11.41c1.45-2.03,0.24-2.92,0.38-2.99c1.64-0.78,5.3-0.27,7.49-3.99c0.46-0.79-0.66-2-0.29-2.78
		c12.87-26.89,31.7-53.39,44.68-80.8c1.48-3.13,2.33-13.15,7.54-12.43c0.46,0.06,0.52,1.33,0.95,1.58c4.03,2.36,6.61,3.93,5.14,9.47
		c-16.35,30.1-32.56,60.29-50.5,89.45c0.7,4.74,4.39-2.44,5.28-3.21c1.19-1.03,3.11-1.03,4.21-2.28c0.48,2.55-6.3,5.79-6.53,6.47
		c-0.36,1.09-0.27,3.23,1.51,2.49c3.54-2.56,15.8-16.98,19.16-17.7c0.74-0.16,2.24,0.87,2.33,0.73c0.28-0.4-0.45-2.58,0.22-3.79
		c0.32-0.58,8.71-6.34,10.38-8.15c1.05-1.15,1.22-2.87,1.4-3.05c3.84-1.1,13.84-8.63,16.55-11.91c0.9-1.09,2.72-3.25,0.44-4.08
		c0.93-1.03,3.1-6.33,6.32-5.84c1.61,0.25,9.74,5.72,7.23,8.83l-36.62,29.59c5.13,12.36,11.47,25.12,26.99,16.82
		c0.94-0.5,11.11-8.85,11.51-9.48c2.48-3.84,4.39-15.81,7.37-21.62c0.62-1.21,6.35-10.09,7.17-9.31l0.5,1.99
		c2.93-1.73,4.09-6.04,6.06-8.03c0.53-0.53,5.02-0.96,4.43-4.96l-2.98-0.49c5.15-5.4,22.57-20.37,29.96-16.99
		c1.11,0.51,3.21,3.24,3.59,4.44c0.55,1.76-0.39,12.09-0.8,14.3c-1.57,8.3-12.79,19.78-19.83,24.15c-3.46,2.15-13.72,5.57-16,8.02
		c-0.62,0.67-0.18,2.12-0.9,3.03c-1.89,2.41-10.29,11.48-10.81,13.2c-2.91,9.67,2.71,8.5,9.34,6.35
		c11.2-3.63,23.8-13.02,33.37-19.65c5.16-3.58,16.71-28.35,20.23-35.7c1.97-4.12,3.48-11.33,5.38-14.6
		c2.16-3.73,10.26-1.13,9.24,6.17c-1.08,7.72-20.21,39-18.79,40.75c4.7-2.26,7.25-7.77,11.49-10.99l-0.01,2.97l10.48-10.48
		l-2.97,0.01c5.66-7.12,15.84-13.91,20.98-21c3.68-5.07,2.94-12.83,11.42-11.48c4.56,0.73,6.14,3.75,5.09,7.99
		c-2.78,11.26-14.18,27.68-18.52,40.46c-0.96,2.82-2.28,6.33-2.83,9.18c-0.28,1.43-0.23,1.67,1.36,1.35
		c1.35-0.27,12.37-8.24,13.17-9.32c2.18-2.98,6.07-16.17,8.45-21.04c1.68-3.45,13.52-26.34,14.83-27.17c1.9-1.2,4.78,0.11,6.27,1.5
		c5.96,5.55-7.46,17.8-8.24,24.03c2.41-1.77,4.65-3.9,6.84-5.93c1.34-1.24,0.97-2.2,1.14,0.41c-1.64,3.16-1.3,5.47-4.99,3.52
		c0.53,7.03-8.01,12.37-11.21,18.29c-1.54,2.86-3.48,7.4-3.3,10.69c8.73-10.97,16.76-22.51,25.51-33.45
		c7.57-9.47,17.14-17.44,22.49-28.52c3.76,1.53,8.14,4.52,7.31,9.25l-15.82,31.73c1.35-1.18,4.8-0.81,4.94-1.03
		c0.52-0.83-0.47-3.94,1.56-4.96c1.67,3.92,4.11,0.87,2.95-2.97c5.14-4.06,21.18-25.92,26.94-25.1c2.71,5.24,6.64,3.18,5.15,10.13
		c-1.79,8.37-14.87,28.04-19.41,37.57c-6.73,14.13-17.26,33.26-14.15,48.85c-2.6-0.01-8.78-5.86-8.98-8.02
		c-0.05-0.59,0.96-7.01,1.16-7.32c0.47-0.7,2.86-0.48,3.61-1.39c0.26-0.31,2.8-7.08,2.87-7.48c0.18-1.08-0.67-2.02-0.65-2.29
		c3.73-4.48,5.76-12.09,8.06-18.25c2.64-7.09,8.19-16.56,12.22-23.98c0.72-1.33,1.24-2.8,1.72-4.24c-0.15-3.08-1.05-0.96-1.77,0.24
		c-6.85,11.41-13.02,25.72-17.83,38.17C999.73,761.04,997.91,762.49,997.8,762.88z M870.56,722.59c1.01-1.36,4.06-8.72,3.3-9.69
		c-8.18,5.38-17.02,11.52-23.49,18.98c-2.34,2.69-5.4,6.57-6.48,10c1.44,1.42,11.77-10.84,13.49-11.98l-1.02,4.97
		c1.21-1.2,2.91-1.7,4.27-2.66C862.33,731.02,869.47,724.06,870.56,722.59z M855.39,713.9v1
		C856.04,714.57,856.04,714.23,855.39,713.9z M853.88,716.89c0.72-1.4-0.63-2.67-0.98-1.99
		C852.18,716.31,853.53,717.57,853.88,716.89z M815.91,716.91c-1.35-1.35-2.88,1.44-2.5,2.97
		C814.35,718.91,817.6,718.6,815.91,716.91z M897.54,724.65c0.49-0.94,0.36-1.77,0.32-2.75c-0.73-1.02-4.9,7.64-4.98,8.99
		c3,0.71,2.19-3.24,3.07-5.24C896.26,724.91,897.45,724.81,897.54,724.65z M927.83,725.89c0.72-1.4-0.63-2.67-0.98-1.99
		C926.14,725.31,927.49,726.57,927.83,725.89z M715.31,736.23c2.03-1.3,3.66-2.37,5.07-4.43c0.1-0.14,2.18-4.14,0.6-3.41
		c-6.99,7.09-13.84,16.61-15.98,26.5L715.31,736.23z M925.85,734.89c2.26-0.6,2.13-3.12,1.98-4.99l-0.98,0L925.85,734.89z
		 M638.01,758.88c0.35-0.33,3.39-7.5,3.84-8.68c0.62-1.65,1.98-1.61-0.33-3.31c-0.73,4.77-3.98,7.07-5.48,11.5
		C635.9,759.25,637.93,758.95,638.01,758.88z M588.05,767.88c-2.07-2.18-8.23,12.12-7.98,13.99l2.84-2.64L588.05,767.88z
		 M757.94,768.88c-1.4-0.72-2.67,0.63-1.99,0.98C757.36,770.58,758.62,769.23,757.94,768.88z"/>
	<path class="st0" d="M997.8,767.88c-1.67,2.01-1.75,5.08-3.98,5.51c0.85-3.57,2.91-7.28,3.98-10.51
		C997.47,764,997.91,766.4,997.8,767.88z"/>
</g>
</svg>
