<?xml version="1.0" encoding="UTF-8"?>
<svg id="Ebene_1" xmlns="http://www.w3.org/2000/svg" viewBox="0 0 512 512">
  <defs>
    <style>
      .cls-1 {
        fill: #bd8971;
      }
    </style>
  </defs>
  <path class="cls-1" d="M266.29,461.83c-51.16.39-89.13-3.51-125.9-15.92-2.74-.92-5.45-1.94-8.15-2.94-4.15-1.54-6.13-4.55-6.79-8.94-5.99-39.86-12.09-79.7-18.16-119.55-1.17-7.69-2.48-15.35-3.44-23.07-.36-2.86-1.39-3.95-4.31-4.26-21.9-2.37-38.26-13.05-48.66-32.68-1.68-3.17-3.72-6.25-6.09-8.94-11.25-12.79-10.89-26.56-3.52-40.79,3.69-7.14,8.61-13.29,16.05-17.17,1.58-.83,2.93-3.21,3.3-5.09,3.59-18.28,14.44-31.63,28.58-42.8,3.41-2.69,6.83-5.37,10.37-7.88,12.53-8.9,23.3-19.29,33.68-30.9,33.27-37.24,75.08-55.48,125.83-49.67,27.4,3.14,54.14,9.27,79.97,18.94,13.69,5.12,26.68,12.14,36.08,23.38,9.14,10.93,20.83,16.8,33.36,22.18,23.8,10.23,42.14,26.37,52.7,50.51,4.54,10.39,7.49,21.23,7.07,32.59-.31,8.52,1.27,16.3,4.77,24.09,5.97,13.27,2.84,25.76-8.3,35.1-11.66,9.76-25.67,14.53-40.11,18.27-2.62.68-5.24,1.69-7.9,1.85-6.13.36-7.69,3.56-8.27,9.36-3.56,35.81-7.61,71.57-11.41,107.35-1.34,12.58-2.69,25.17-3.53,37.8-.5,7.49-4.64,11.31-11.04,13.78-17.21,6.67-35.27,9.45-53.47,11-25.04,2.14-50.15,3.54-62.7,4.4ZM236.25,59.46c-41.3,1.56-77.99,25.29-97.13,48.49-7.22,8.75-15.05,16.54-24.32,23-4.15,2.89-8.12,6.05-12.11,9.18-14.68,11.53-27.82,24.21-33.69,42.78-1.87,5.9-1.89,11.1,2.59,15.55,4.48,4.45,9.42,2.52,14.02.07,6.86-3.65,13.54-7.63,20.37-11.35,14-7.64,28.43-9.43,43.14-2.27,6.81,3.31,13.8,6.61,19.82,11.11,20.05,14.98,42.4,20.87,67.23,19.87,11.49-.47,23.07.87,34.59,1.75,12.22.93,24.4,1.3,35.46-4.89,7.06-3.95,13.99-8.38,20.26-13.47,8.7-7.08,18.21-9.2,28.94-7.18,7.99,1.5,15.92,3.69,23.98,4.39,8.15.71,16.65,1.11,24.6-.42,9.28-1.78,15.25-9.04,20.24-16.94,5.44-8.64,10.97-10.41,20.85-7.41,2.17.66,4.32,1.38,7.2,2.3-1.21-2.87-2.02-5.03-3.02-7.11-10.41-21.57-27.12-36.32-49.3-44.9-11.63-4.5-22.03-10.4-30.29-20.12-7.6-8.93-17.34-15.58-28.22-19.77-13.45-5.18-27.13-10.11-41.11-13.5-18.38-4.46-37.15-7.31-56.1-10.91,1.72,3.73,2.82,6.1,3.91,8.46-2.8.86-5.65,2.52-8.39,2.34-2.5-.16-4.86-2.31-7.29-3.59,1.32-1.9,2.65-3.8,3.8-5.46ZM59.49,201.15c-5.95,5.53-10.12,11.82-11.49,19.53-.57,3.22-.99,7.43.57,9.89,7.04,11.08,13.93,22.47,22.56,32.27,9.29,10.55,23.09,12.5,36.41,12.78,11.2.24,19.75,4.75,28.51,11.2,33.16,24.42,69.16,30.6,107.82,14.24,7.98-3.38,16.05-5.04,24.67-5.47,12.81-.64,25.66-1.54,38.36-3.28,18.92-2.6,36.57-8.57,50.73-22.32,4.21-4.09,9.48-5.72,15.37-5.69,12.49.06,25,.45,37.45-.19,15.21-.78,30.27-2.85,43.66-11.14,12.3-7.61,15.33-15.44,8.77-28.12-4.7-9.09-6.28-18.29-6.05-28.18.06-2.52-.16-5.07-.49-7.58-.18-1.38-.52-3.5-1.41-3.89-5.87-2.57-11.73-5.54-17.93-6.84-5.17-1.09-6.77,4.63-9.22,7.96-10.3,14.04-24.23,19.57-41.2,17.57-7.34-.87-14.76-2.04-21.81-4.2-15.87-4.85-29.15-2.35-41.97,9.11-13.44,12.01-30.11,16.24-48.46,14.6-15.27-1.36-30.68-1.36-46.03-1.66-20.19-.4-38.94-5.18-55.68-16.92-5.91-4.15-12.1-7.93-18.32-11.62-16.89-10.02-33.12-9.83-48.66,3.12-4.71,3.92-9.82,7.42-15.02,10.67-13.27,8.31-21.1,6.85-31.15-5.87ZM260.32,449.2c9.37,0,18.05-.28,26.69.1,5.36.24,6.43-1.91,6.71-6.88,1.78-32.3,4.03-64.57,5.95-96.86.81-13.65,1.21-27.32,1.77-40.49-1.27-.71-1.59-1.04-1.89-1.03-12.81.53-25.63.98-38.43,1.84-1.14.08-3.02,2.82-3,4.3.52,45.37,1.23,90.74,1.93,136.11.02,1.05.19,2.09.27,2.9ZM220.7,449.62h32.42v-140.27c-15.08,3.75-29.67,7.37-44.38,11.02,3.91,42.26,7.9,85.41,11.96,129.25ZM330.39,444.74c5.16-49.95,10.26-99.27,15.39-148.87-13.59,2.99-25.66,5.64-38.03,8.36-2.5,47.83-9.55,95.67-7.33,144.65,10.19-1.41,20.29-2.8,29.97-4.14ZM164.2,314.27c.13,1.36.25,2.95.45,4.54,4.55,36.4,9.11,72.8,13.65,109.2.65,5.19-.53,12.05,2.35,15.11,3.05,3.25,9.89,3.19,15.16,4.05,5.94.97,11.98,1.36,18.47,2.05-.76-13.73-1.17-26.36-2.22-38.95-2.43-29.37-5.12-58.72-7.91-88.05-.12-1.26-2.2-3.16-3.57-3.35-11.95-1.69-23.95-3.07-36.39-4.59ZM337.63,443.46c5.2-1.06,9.94-1.97,14.66-2.99,9.51-2.06,9.46-2.09,11.09-11.41,6.17-35.23,13.06-70.36,15.47-106.14.92-13.62,2.15-27.22,3.21-40.41-11.53-4.35-19.07,3.18-27.28,8.41-.94.6-1.25,2.49-1.47,3.84-7.25,46.08-13.59,92.27-15.68,138.93-.13,3-.02,6.02-.02,9.76ZM172.61,442.73c.11-1.59.27-2.48.21-3.35-1.44-20.57-2.3-41.2-4.52-61.68-2.23-20.65-5.75-41.16-8.87-61.71-.29-1.88-1.36-4.47-2.82-5.2-9.59-4.8-19.4-9.18-29.1-13.68.06,1,.03,2.76.27,4.49,2.09,15.4,4.09,30.82,6.37,46.19,4.17,28.07,8.49,56.12,12.87,84.16.24,1.52,1.33,3.75,2.52,4.13,7.5,2.42,15.14,4.42,23.07,6.65ZM400.42,281.27c-4.01,1.2-8.97-2.6-10.15,3.72-2.06,11-4.14,22.02-5.53,33.12-3.73,29.94-7.1,59.93-10.59,89.9-1.02,8.75-1.95,17.51-2.93,26.27,8.14.79,7.43-4.99,8.08-9.29,5.43-35.9,10.76-71.81,16.07-107.72,1.73-11.73,3.3-23.49,5.05-36.01ZM138.63,432.76l2.06-.38c0-1.05.11-2.12-.02-3.15-2.44-20.46-4.44-40.98-7.48-61.35-3.54-23.76-8.05-47.37-12.03-71.07-1.42-8.42-1.86-8.89-9.1-7.97,8.85,47.93,17.7,95.93,26.56,143.93Z"/>
  <path class="cls-1" d="M173.51,104.52c-.2,8.72-12.54,16.86-19.13,13.84-1.36-.62-2.52-3.46-2.41-5.19.49-7.48,10-14.27,17.32-12.28,1.91.52,3.34,2.83,4.22,3.63ZM168.82,107.4c-7.27-2.15-10.8.04-11.27,6.47,4.22-2.42,7.74-4.45,11.27-6.47Z"/>
  <path class="cls-1" d="M206.65,172.94c-4.48-1.15-9.14-1.87-13.36-3.63-1.85-.77-3.89-3.7-3.85-5.61.04-1.8,2.36-4.26,4.28-5.17,8.32-3.96,17.51-.81,22.43,7.23,1.88,3.07,1.13,5.22-2.36,5.99-2.26.5-4.64.46-6.96.66-.06.18-.12.35-.18.53ZM211.57,167.21c-5.48-7.09-11.05-8.33-17.81-3.96,3.5,4.45,11,6.12,17.81,3.96Z"/>
  <path class="cls-1" d="M303.02,117.42c-3.81-2.14-7.94-3.86-11.32-6.53-3.15-2.49-2.16-6.91,1.5-8.2,5.7-2.01,11.59-1.86,16.59,1.51,2.13,1.44,3.99,4.95,3.89,7.43-.06,1.53-3.97,3.06-6.32,4.28-1.04.54-2.47.33-3.72.47-.21.35-.42.69-.62,1.04ZM310.19,110.68c-2.81-4.94-6.7-6.07-14.13-4.11,3.56,5.77,8.4,7.18,14.13,4.11Z"/>
  <path class="cls-1" d="M96.42,160.74c2.65-3.31,4.17-6.96,6.76-8.04,3.59-1.49,7.97-1.15,12.03-1.22.3,0,1.22,3.15.86,4.59-1.24,4.99-9.26,10.44-14.4,9.53-1.63-.29-2.91-2.61-5.25-4.87Z"/>
  <path class="cls-1" d="M261.78,93.09c-1.65-.3-3.45-.47-5.16-.96-3.67-1.06-6.51-3.65-5.5-7.34.48-1.77,4.24-3.54,6.6-3.67,3.45-.19,7.17.64,10.41,1.95,1.76.71,3.93,3.38,3.8,4.99-.12,1.53-2.83,3.18-4.72,4.15-1.51.77-3.5.61-5.43.88Z"/>
  <path class="cls-1" d="M313.34,163.22c.51-2.96.43-4.54,1.08-5.74.8-1.49,2.07-3.55,3.36-3.73,1.31-.18,3.67,1.31,4.22,2.63,1.56,3.72,2.79,7.68,3.37,11.66.2,1.37-1.62,3.74-3.08,4.4-1.11.5-3.72-.51-4.6-1.66-1.98-2.58-3.3-5.66-4.34-7.56Z"/>
  <path class="cls-1" d="M277.61,187.83c-1.18,4.56-3.56,5.89-7.36,4.13-4.19-1.94-9.08-11.67-8.13-16.18.69-3.27,4.99-4.29,7.63-1.05,3.18,3.91,5.28,8.7,7.85,13.1ZM267.74,176.94l-1.96.95c1.7,3.48,3.39,6.95,5.09,10.43.65-.32,1.3-.63,1.96-.95-1.69-3.48-3.39-6.96-5.08-10.43Z"/>
  <path class="cls-1" d="M373.71,123.08c1.67.37,4.38.43,6.47,1.59,2.22,1.22,3.85,3.5,5.74,5.32-1.98,1.51-3.77,3.78-5.99,4.34-2.63.66-5.9.52-8.4-.5-2.39-.98-5.69-3.4-5.85-5.42-.36-4.26,3.57-5.1,8.03-5.32ZM381.69,130.47v-2.55h-11.63c-.02.64-.03,1.29-.05,1.93,3.89.21,7.79.41,11.68.62Z"/>
  <path class="cls-1" d="M214.54,92.39c-4.95-3.86-9.09-6.77-12.71-10.23-.55-.52.79-4.55,2.16-5.28,5.8-3.12,15.1,2.82,14.82,9.43-.07,1.65-2.18,3.22-4.27,6.08ZM206.55,79.1c-.45.72-.89,1.43-1.34,2.15,2.71,1.71,5.42,3.43,8.13,5.14.47-.75.93-1.5,1.4-2.24-2.73-1.68-5.46-3.37-8.19-5.05Z"/>
</svg>